<svg xmlns="http://www.w3.org/2000/svg" viewBox="0 0 2492 2647"><defs><style>.a{opacity:0.2;}.b,.c{fill:none;stroke-miterlimit:10;stroke-width:6px;}.b{stroke:#fff;}.c{stroke:#ed1c24;}</style></defs><g class="a"><ellipse class="b" cx="1228.67" cy="1322.98" rx="1089.14" ry="1136.02"/><path class="b" d="M761.4,2208.39c-416.75-220.28-577.2-696-500.86-1092,78-404.85,386.12-624.26,457.17-672.25L854.48,713.65l372.87,700.79,512.27-970.28,13.45-13.44c46.74,32.08,444.84,315.6,470.61,833.58,29.06,583.85-455.44,907.94-484.06,927.7-16.42-106.6-19.4-199.75-35.83-306.34L1633,1064l-345.25,609.31h-126L820,1064"/><path class="c" d="M1927.87,1855.88c44.71-87.19,106.82-236,121-430.24,18.19-248.83-51.81-442.21-94.12-537.8"/><polygon class="c" points="2058.08 858.07 1957.35 893.79 1842.62 934.45 1885.61 733.76 2058.08 858.07"/><path class="c" d="M545.86,807.17c-44.71,87.19-106.82,236-121,430.24-18.18,248.83,51.81,442.21,94.12,537.8"/><polygon class="c" points="421.21 1823.63 623.4 1717.01 609.8 1921.78 609.8 1921.78 421.21 1823.63"/><line class="b" x1="820.93" y1="1065.31" x2="761.4" y2="2208.39"/></g></svg>