<svg xmlns="http://www.w3.org/2000/svg" viewBox="0 0 1712 1514"><defs><style>.a,.b{fill:none;stroke-miterlimit:10;}.a{stroke:#000;stroke-width:23.29px;}.b{stroke:#ed1c24;stroke-width:46.58px;}.c{fill:#ed1c24;}</style></defs><circle class="a" cx="856" cy="757" r="628.88"/><path d="M553.21,1253.89C353.19,1102.76,252.92,861.43,297,632.78,342.07,399,520,272.3,561,244.58L640,400.2,855.24,804.88,1151,244.58l7.76-7.76c27,18.53,256.85,182.25,271.74,481.36,16.78,337.15-263,524.3-279.5,535.71-9.49-61.56-11.21-115.35-20.69-176.9l-40.87-474.45L890.13,954.39H817.37L620,602.54"/><path class="b" d="M1259.72,1059.79a648.94,648.94,0,0,0,69.88-248.44c10.5-143.69-29.92-255.36-54.35-310.56"/><path class="b" d="M461.75,454.21a648.94,648.94,0,0,0-69.88,248.44c-10.5,143.69,29.92,255.36,54.35,310.56"/><polygon class="c" points="1334.9 483.61 1210.49 527.7 1235.33 411.82 1235.33 411.82 1334.9 483.61"/><polygon class="c" points="389.77 1034.29 506.52 972.72 498.66 1090.97 498.66 1090.97 389.77 1034.29"/></svg>