<svg xmlns="http://www.w3.org/2000/svg" viewBox="0 0 1821 1544"><defs><style>.a,.c{fill:none;stroke-miterlimit:10;}.a{stroke:#fff;stroke-width:24.91px;}.b{fill:#fff;}.c{stroke:#ed1c24;stroke-width:48.78px;}.d{fill:#ed1c24;}</style></defs><ellipse class="a" cx="892.43" cy="779.88" rx="658.57" ry="686.92"/><path class="b" d="M575.34,1305.35C365.87,1147.1,260.87,894.4,307,655c47.2-244.8,233.47-377.47,276.44-406.49q41.34,81.48,82.7,163L891.63,835.18l309.76-586.7,8.13-8.13c28.26,19.41,269,190.84,284.57,504.05,17.57,353-275.4,549-292.7,560.95-9.93-64.45-11.74-120.78-21.67-185.24l-42.79-496.8L928.17,991.74H852L645.3,623.31"/><path class="c" d="M1315.21,1102.11A679.3,679.3,0,0,0,1388.39,842c11-150.46-31.33-267.4-56.91-325.19"/><path class="c" d="M479.56,468a679.3,679.3,0,0,0-73.18,260.15c-11,150.46,31.33,267.39,56.92,325.19"/><polygon class="d" points="1393.94 498.78 1263.66 544.94 1289.66 423.6 1289.66 423.6 1393.94 498.78"/><polygon class="d" points="404.18 1075.41 526.44 1010.94 518.22 1134.76 518.22 1134.76 404.18 1075.41"/></svg>